<?xml version="1.0" encoding="UTF-8"?>
<svg xmlns="http://www.w3.org/2000/svg" width="24" height="24" viewBox="0 0 24 24">
  <path d="M14 2H6a2 2 0 0 0-2 2v16a2 2 0 0 0 2 2h12a2 2 0 0 0 2-2V8z" fill="#ECEFF1" stroke="#455A64" stroke-width="1"/>
  <path d="M14 2v6h6" fill="none" stroke="#455A64" stroke-width="1"/>
  
  <!-- Colored Badge -->
  <rect x="4" y="14" width="16" height="6" fill="#E53935"/>
  
  <!-- Label: JPG -->
  <path d="M6.5 15.5v2a.5.5 0 0 1-.5.5h-.5v.5h.5a1 1 0 0 0 1-1v-2h-.5z" fill="white"/>
  <path d="M8.5 15.5v3h.6v-1.2h.7a.8.8 0 0 0 0-1.6h-1.3zm.6.5h.7a.3.3 0 0 1 0 .6h-.7v-.6z" fill="white"/>
  <path d="M13 17.5h1.5v.5h-1a.5.5 0 0 0 .5.5h.5a.5.5 0 0 0 .5-.5v-1a.5.5 0 0 0-.5-.5h-.5a.5.5 0 0 0-.5.5v.5z m.5-1.5h1a1 1 0 0 1 1 1v1a1 1 0 0 1-1 1h-1a1 1 0 0 1-1-1v-1a1 1 0 0 1 1-1z" fill="white"/>
</svg>
