<?xml version="1.0" encoding="UTF-8"?>
<svg xmlns="http://www.w3.org/2000/svg" width="24" height="24" viewBox="0 0 24 24">
  <path d="M14 2H6a2 2 0 0 0-2 2v16a2 2 0 0 0 2 2h12a2 2 0 0 0 2-2V8z" fill="#ECEFF1" stroke="#455A64" stroke-width="1"/>
  <path d="M14 2v6h6" fill="none" stroke="#455A64" stroke-width="1"/>
  
  <!-- Colored Badge -->
  <rect x="4" y="14" width="16" height="6" fill="#00ACC1"/>
  
  <!-- Label: WEBP -->
  <path d="M5 15.5v3h.4l.6-2 .6 2h.4l.7-3h-.5l-.4 2-.6-2h-.4l-.6 2-.4-2h-.3z" fill="white"/>
  <path d="M9 15.5v3h1.5v-.5h-1v-.7h1v-.5h-1v-.8h1v-.5h-1z" fill="white"/>
  <path d="M12 15.5v3h1a.8.8 0 0 0 0-1.6v-1.4h-1zm.6.5h.4a.3.3 0 0 1 0 .6h-.4v-.6zm0 1.1h.4a.3.3 0 0 1 0 .6h-.4v-.6z" fill="white"/>
  <path d="M16 15.5v3h.6v-1.2h.7a.8.8 0 0 0 0-1.6h-1.3zm.6.5h.7a.3.3 0 0 1 0 .6h-.7v-.6z" fill="white"/>
</svg>
