<?xml version="1.0" encoding="UTF-8"?>
<svg xmlns="http://www.w3.org/2000/svg" width="24" height="24" viewBox="0 0 24 24">
  <path d="M14 2H6a2 2 0 0 0-2 2v16a2 2 0 0 0 2 2h12a2 2 0 0 0 2-2V8z" fill="#ECEFF1" stroke="#455A64" stroke-width="1"/>
  <path d="M14 2v6h6" fill="none" stroke="#455A64" stroke-width="1"/>
  
  <!-- Colored Badge -->
  <rect x="4" y="14" width="16" height="6" fill="#8E24AA"/>
  
  <!-- Label: TIFF -->
  <path d="M5 15.5v3h1.2v-.5h-.3v-2.5h-.9z M5 15.5h2v.5h-.8v-.5z" fill="white"/>
  <path d="M8 15.5v3h.6v-3h-.6z" fill="white"/>
  <path d="M10 15.5v3h.6v-1.2h1v-.5h-1v-.8h1.2v-.5h-1.2z" fill="white"/>
  <path d="M14 15.5v3h.6v-1.2h1v-.5h-1v-.8h1.2v-.5h-1.2z" fill="white"/>
</svg>
